<mxfile host="Electron" modified="2024-07-01T16:43:30.928Z" agent="Mozilla/5.0 (Macintosh; Intel Mac OS X 10_15_7) AppleWebKit/537.36 (KHTML, like Gecko) draw.io/24.6.4 Chrome/124.0.6367.207 Electron/30.0.6 Safari/537.36" etag="YLj5k1n-_vcoIMA3rL2e" version="24.6.4" type="device">
  <diagram id="Dt4W1MnMIXrT2MhQ-Fy2" name="Page-1">
    <mxGraphModel dx="2051" dy="867" grid="1" gridSize="10" guides="1" tooltips="1" connect="1" arrows="1" fold="1" page="1" pageScale="1" pageWidth="827" pageHeight="1169" math="0" shadow="0">
      <root>
        <mxCell id="0" />
        <mxCell id="1" parent="0" />
        <mxCell id="1QNPYIcT4z8EZCShUoJh-1" value="UPS&lt;br&gt;&amp;amp;&lt;br&gt;Manual MBS&lt;br&gt;&lt;br&gt;&lt;br&gt;" style="rounded=0;whiteSpace=wrap;html=1;strokeColor=#00CC00;fontColor=#00CC00;" parent="1" vertex="1">
          <mxGeometry x="250" y="140" width="100" height="90" as="geometry" />
        </mxCell>
        <mxCell id="1QNPYIcT4z8EZCShUoJh-2" value="PDP-3&lt;br&gt;&lt;br&gt;&lt;br&gt;&lt;br&gt;&lt;br&gt;&lt;br&gt;&lt;br&gt;&lt;br&gt;&lt;br&gt;&lt;br&gt;&lt;br&gt;" style="rounded=0;whiteSpace=wrap;html=1;align=center;fontColor=#00CC00;strokeColor=#00CC00;" parent="1" vertex="1">
          <mxGeometry x="400" y="120" width="100" height="170" as="geometry" />
        </mxCell>
        <mxCell id="1QNPYIcT4z8EZCShUoJh-3" value="" style="rounded=0;whiteSpace=wrap;html=1;strokeColor=#00CC00;" parent="1" vertex="1">
          <mxGeometry x="620" y="350" width="130" height="100" as="geometry" />
        </mxCell>
        <mxCell id="1QNPYIcT4z8EZCShUoJh-4" value="250A&lt;br style=&quot;font-size: 11px&quot;&gt;80A&lt;br&gt;250A&lt;br&gt;225A&lt;br&gt;150A&lt;br&gt;40A&lt;br&gt;100A&lt;br&gt;200A" style="text;html=1;strokeColor=none;fillColor=none;align=center;verticalAlign=middle;whiteSpace=wrap;rounded=0;fontColor=#00CC00;" parent="1" vertex="1">
          <mxGeometry x="460" y="150" width="40" height="130" as="geometry" />
        </mxCell>
        <mxCell id="1QNPYIcT4z8EZCShUoJh-5" value="" style="endArrow=none;html=1;strokeColor=#00CC00;" parent="1" edge="1">
          <mxGeometry width="50" height="50" relative="1" as="geometry">
            <mxPoint x="500" y="165" as="sourcePoint" />
            <mxPoint x="530" y="165" as="targetPoint" />
          </mxGeometry>
        </mxCell>
        <mxCell id="1QNPYIcT4z8EZCShUoJh-6" value="" style="endArrow=none;html=1;strokeColor=#00CC00;" parent="1" edge="1">
          <mxGeometry width="50" height="50" relative="1" as="geometry">
            <mxPoint x="530" y="165" as="sourcePoint" />
            <mxPoint x="530" y="40" as="targetPoint" />
          </mxGeometry>
        </mxCell>
        <mxCell id="1QNPYIcT4z8EZCShUoJh-7" value="" style="endArrow=none;html=1;strokeColor=#00CC00;" parent="1" edge="1">
          <mxGeometry width="50" height="50" relative="1" as="geometry">
            <mxPoint x="530" y="40" as="sourcePoint" />
            <mxPoint x="590" y="40" as="targetPoint" />
          </mxGeometry>
        </mxCell>
        <mxCell id="1QNPYIcT4z8EZCShUoJh-9" value="North BIMA Pads" style="rounded=0;whiteSpace=wrap;html=1;strokeColor=#00CC00;fontColor=#00CC00;" parent="1" vertex="1">
          <mxGeometry x="590" y="24" width="120" height="30" as="geometry" />
        </mxCell>
        <mxCell id="1QNPYIcT4z8EZCShUoJh-10" value="" style="endArrow=none;html=1;strokeColor=#00CC00;" parent="1" edge="1">
          <mxGeometry width="50" height="50" relative="1" as="geometry">
            <mxPoint x="500" y="180" as="sourcePoint" />
            <mxPoint x="550" y="180" as="targetPoint" />
          </mxGeometry>
        </mxCell>
        <mxCell id="1QNPYIcT4z8EZCShUoJh-11" value="East BIMA Pads" style="rounded=0;whiteSpace=wrap;html=1;strokeColor=#00CC00;fontColor=#00CC00;" parent="1" vertex="1">
          <mxGeometry x="590" y="75" width="120" height="30" as="geometry" />
        </mxCell>
        <mxCell id="1QNPYIcT4z8EZCShUoJh-12" value="" style="endArrow=none;html=1;strokeColor=#00CC00;" parent="1" edge="1">
          <mxGeometry width="50" height="50" relative="1" as="geometry">
            <mxPoint x="550" y="180" as="sourcePoint" />
            <mxPoint x="550" y="90" as="targetPoint" />
          </mxGeometry>
        </mxCell>
        <mxCell id="1QNPYIcT4z8EZCShUoJh-13" value="" style="endArrow=none;html=1;strokeColor=#00CC00;" parent="1" edge="1">
          <mxGeometry width="50" height="50" relative="1" as="geometry">
            <mxPoint x="550" y="90" as="sourcePoint" />
            <mxPoint x="590" y="90" as="targetPoint" />
          </mxGeometry>
        </mxCell>
        <mxCell id="1QNPYIcT4z8EZCShUoJh-14" value="West BIMA Pads" style="rounded=0;whiteSpace=wrap;html=1;strokeColor=#00CC00;fontColor=#00CC00;" parent="1" vertex="1">
          <mxGeometry x="590" y="125" width="120" height="30" as="geometry" />
        </mxCell>
        <mxCell id="1QNPYIcT4z8EZCShUoJh-15" value="" style="endArrow=none;html=1;strokeColor=#00CC00;" parent="1" edge="1">
          <mxGeometry width="50" height="50" relative="1" as="geometry">
            <mxPoint x="500" y="195" as="sourcePoint" />
            <mxPoint x="570" y="195" as="targetPoint" />
          </mxGeometry>
        </mxCell>
        <mxCell id="1QNPYIcT4z8EZCShUoJh-16" value="" style="endArrow=none;html=1;strokeColor=#00CC00;" parent="1" edge="1">
          <mxGeometry width="50" height="50" relative="1" as="geometry">
            <mxPoint x="570" y="195" as="sourcePoint" />
            <mxPoint x="570" y="140" as="targetPoint" />
          </mxGeometry>
        </mxCell>
        <mxCell id="1QNPYIcT4z8EZCShUoJh-18" value="" style="endArrow=none;html=1;strokeColor=#00CC00;" parent="1" edge="1">
          <mxGeometry width="50" height="50" relative="1" as="geometry">
            <mxPoint x="570" y="140" as="sourcePoint" />
            <mxPoint x="590" y="140" as="targetPoint" />
          </mxGeometry>
        </mxCell>
        <mxCell id="1QNPYIcT4z8EZCShUoJh-20" value="" style="endArrow=none;html=1;strokeColor=#00CC00;" parent="1" edge="1">
          <mxGeometry width="50" height="50" relative="1" as="geometry">
            <mxPoint x="640" y="210" as="sourcePoint" />
            <mxPoint x="640" y="190" as="targetPoint" />
          </mxGeometry>
        </mxCell>
        <mxCell id="1QNPYIcT4z8EZCShUoJh-22" value="PDP-3B&lt;br&gt;(Vault)&lt;br&gt;&lt;br&gt;&lt;br&gt;&lt;br&gt;&lt;br&gt;&lt;br&gt;&lt;br&gt;&lt;br&gt;" style="rounded=0;whiteSpace=wrap;html=1;strokeColor=#00CC00;fontColor=#00CC00;" parent="1" vertex="1">
          <mxGeometry x="740" y="120" width="80" height="150" as="geometry" />
        </mxCell>
        <mxCell id="1QNPYIcT4z8EZCShUoJh-24" value="125A&lt;br&gt;80A&lt;br&gt;&lt;br&gt;&lt;br&gt;&lt;div&gt;20A&lt;/div&gt;" style="text;html=1;strokeColor=none;fillColor=none;align=right;verticalAlign=middle;whiteSpace=wrap;rounded=0;fontColor=#00CC00;" parent="1" vertex="1">
          <mxGeometry x="780" y="140" width="40" height="130" as="geometry" />
        </mxCell>
        <mxCell id="1QNPYIcT4z8EZCShUoJh-25" value="" style="endArrow=none;html=1;entryX=0;entryY=0.5;entryDx=0;entryDy=0;strokeColor=#00CC00;" parent="1" target="1QNPYIcT4z8EZCShUoJh-26" edge="1">
          <mxGeometry width="50" height="50" relative="1" as="geometry">
            <mxPoint x="820" y="233" as="sourcePoint" />
            <mxPoint x="850" y="233" as="targetPoint" />
          </mxGeometry>
        </mxCell>
        <mxCell id="1QNPYIcT4z8EZCShUoJh-26" value="" style="rounded=0;whiteSpace=wrap;html=1;strokeColor=#00CC00;" parent="1" vertex="1">
          <mxGeometry x="855" y="199.5" width="70" height="67" as="geometry" />
        </mxCell>
        <mxCell id="1QNPYIcT4z8EZCShUoJh-29" value="" style="endArrow=none;html=1;strokeColor=#00CC00;" parent="1" edge="1">
          <mxGeometry width="50" height="50" relative="1" as="geometry">
            <mxPoint x="925" y="232.5" as="sourcePoint" />
            <mxPoint x="945" y="232.5" as="targetPoint" />
          </mxGeometry>
        </mxCell>
        <mxCell id="1QNPYIcT4z8EZCShUoJh-30" value="Sump&lt;br&gt;Pump" style="rounded=0;whiteSpace=wrap;html=1;strokeColor=#00CC00;fontColor=#00CC00;" parent="1" vertex="1">
          <mxGeometry x="945" y="213" width="50" height="40" as="geometry" />
        </mxCell>
        <mxCell id="1QNPYIcT4z8EZCShUoJh-32" value="" style="endArrow=none;html=1;strokeColor=#00CC00;" parent="1" edge="1">
          <mxGeometry width="50" height="50" relative="1" as="geometry">
            <mxPoint x="500" y="209.5" as="sourcePoint" />
            <mxPoint x="640" y="209" as="targetPoint" />
          </mxGeometry>
        </mxCell>
        <mxCell id="1QNPYIcT4z8EZCShUoJh-33" value="" style="endArrow=none;html=1;strokeColor=#00CC00;" parent="1" edge="1">
          <mxGeometry width="50" height="50" relative="1" as="geometry">
            <mxPoint x="640" y="190" as="sourcePoint" />
            <mxPoint x="740" y="190" as="targetPoint" />
          </mxGeometry>
        </mxCell>
        <mxCell id="1QNPYIcT4z8EZCShUoJh-34" value="" style="endArrow=none;html=1;strokeColor=#00CC00;" parent="1" edge="1">
          <mxGeometry width="50" height="50" relative="1" as="geometry">
            <mxPoint x="820" y="176" as="sourcePoint" />
            <mxPoint x="840" y="176" as="targetPoint" />
          </mxGeometry>
        </mxCell>
        <mxCell id="1QNPYIcT4z8EZCShUoJh-35" value="" style="endArrow=none;html=1;strokeColor=#00CC00;" parent="1" edge="1">
          <mxGeometry width="50" height="50" relative="1" as="geometry">
            <mxPoint x="840" y="176" as="sourcePoint" />
            <mxPoint x="840" y="100" as="targetPoint" />
          </mxGeometry>
        </mxCell>
        <mxCell id="1QNPYIcT4z8EZCShUoJh-36" value="" style="endArrow=none;html=1;strokeColor=#00CC00;" parent="1" edge="1">
          <mxGeometry width="50" height="50" relative="1" as="geometry">
            <mxPoint x="840" y="100" as="sourcePoint" />
            <mxPoint x="870" y="100" as="targetPoint" />
          </mxGeometry>
        </mxCell>
        <mxCell id="1QNPYIcT4z8EZCShUoJh-37" value="Nodes&lt;br&gt;1,2,3" style="rounded=0;whiteSpace=wrap;html=1;strokeColor=#00CC00;fontColor=#00CC00;" parent="1" vertex="1">
          <mxGeometry x="870" y="80" width="60" height="40" as="geometry" />
        </mxCell>
        <mxCell id="1QNPYIcT4z8EZCShUoJh-39" value="" style="endArrow=none;html=1;strokeColor=#00CC00;" parent="1" edge="1">
          <mxGeometry width="50" height="50" relative="1" as="geometry">
            <mxPoint x="820" y="192" as="sourcePoint" />
            <mxPoint x="850" y="192" as="targetPoint" />
          </mxGeometry>
        </mxCell>
        <mxCell id="1QNPYIcT4z8EZCShUoJh-40" value="" style="endArrow=none;html=1;strokeColor=#00CC00;" parent="1" edge="1">
          <mxGeometry width="50" height="50" relative="1" as="geometry">
            <mxPoint x="850" y="192" as="sourcePoint" />
            <mxPoint x="850" y="160" as="targetPoint" />
          </mxGeometry>
        </mxCell>
        <mxCell id="1QNPYIcT4z8EZCShUoJh-41" value="Nodes&lt;br&gt;4,5" style="rounded=0;whiteSpace=wrap;html=1;strokeColor=#00CC00;fontColor=#00CC00;" parent="1" vertex="1">
          <mxGeometry x="870" y="145" width="50" height="30" as="geometry" />
        </mxCell>
        <mxCell id="1QNPYIcT4z8EZCShUoJh-42" value="" style="endArrow=none;html=1;strokeColor=#00CC00;" parent="1" edge="1">
          <mxGeometry width="50" height="50" relative="1" as="geometry">
            <mxPoint x="850" y="160.5" as="sourcePoint" />
            <mxPoint x="870" y="160.5" as="targetPoint" />
          </mxGeometry>
        </mxCell>
        <mxCell id="1QNPYIcT4z8EZCShUoJh-43" value="" style="endArrow=none;html=1;strokeColor=#00CC00;" parent="1" edge="1">
          <mxGeometry width="50" height="50" relative="1" as="geometry">
            <mxPoint x="500" y="222" as="sourcePoint" />
            <mxPoint x="600" y="222" as="targetPoint" />
          </mxGeometry>
        </mxCell>
        <mxCell id="1QNPYIcT4z8EZCShUoJh-44" value="" style="endArrow=none;html=1;strokeColor=#00CC00;" parent="1" edge="1">
          <mxGeometry width="50" height="50" relative="1" as="geometry">
            <mxPoint x="600" y="402" as="sourcePoint" />
            <mxPoint x="600" y="222" as="targetPoint" />
          </mxGeometry>
        </mxCell>
        <mxCell id="1QNPYIcT4z8EZCShUoJh-45" value="" style="endArrow=none;html=1;strokeColor=#00CC00;" parent="1" edge="1">
          <mxGeometry width="50" height="50" relative="1" as="geometry">
            <mxPoint x="600" y="401.5" as="sourcePoint" />
            <mxPoint x="620" y="401.5" as="targetPoint" />
          </mxGeometry>
        </mxCell>
        <mxCell id="1QNPYIcT4z8EZCShUoJh-46" value="SPR&lt;br&gt;480/208" style="text;html=1;strokeColor=none;fillColor=none;align=left;verticalAlign=middle;whiteSpace=wrap;rounded=0;fontColor=#00CC00;" parent="1" vertex="1">
          <mxGeometry x="626" y="381" width="60" height="40" as="geometry" />
        </mxCell>
        <mxCell id="1QNPYIcT4z8EZCShUoJh-47" value="" style="endArrow=none;html=1;strokeColor=#00CC00;" parent="1" edge="1">
          <mxGeometry width="50" height="50" relative="1" as="geometry">
            <mxPoint x="750" y="370" as="sourcePoint" />
            <mxPoint x="770" y="370" as="targetPoint" />
          </mxGeometry>
        </mxCell>
        <mxCell id="1QNPYIcT4z8EZCShUoJh-48" value="PDP-A" style="rounded=0;whiteSpace=wrap;html=1;strokeColor=#00CC00;fontColor=#00CC00;" parent="1" vertex="1">
          <mxGeometry x="810" y="305" width="160" height="30" as="geometry" />
        </mxCell>
        <mxCell id="1QNPYIcT4z8EZCShUoJh-49" value="PDP-B" style="rounded=0;whiteSpace=wrap;html=1;strokeColor=#00CC00;fontColor=#00CC00;" parent="1" vertex="1">
          <mxGeometry x="810" y="355" width="160" height="30" as="geometry" />
        </mxCell>
        <mxCell id="1QNPYIcT4z8EZCShUoJh-50" value="PDP-C" style="rounded=0;whiteSpace=wrap;html=1;strokeColor=#00CC00;fontColor=#00CC00;" parent="1" vertex="1">
          <mxGeometry x="810" y="415" width="160" height="30" as="geometry" />
        </mxCell>
        <mxCell id="1QNPYIcT4z8EZCShUoJh-51" value="PDP-D" style="rounded=0;whiteSpace=wrap;html=1;strokeColor=#00CC00;fontColor=#00CC00;" parent="1" vertex="1">
          <mxGeometry x="810" y="465" width="160" height="30" as="geometry" />
        </mxCell>
        <mxCell id="1QNPYIcT4z8EZCShUoJh-52" value="" style="endArrow=none;html=1;strokeColor=#00CC00;" parent="1" edge="1">
          <mxGeometry width="50" height="50" relative="1" as="geometry">
            <mxPoint x="750" y="430" as="sourcePoint" />
            <mxPoint x="770" y="430" as="targetPoint" />
          </mxGeometry>
        </mxCell>
        <mxCell id="1QNPYIcT4z8EZCShUoJh-53" value="" style="endArrow=none;html=1;strokeColor=#00CC00;" parent="1" edge="1">
          <mxGeometry width="50" height="50" relative="1" as="geometry">
            <mxPoint x="770" y="480" as="sourcePoint" />
            <mxPoint x="770" y="430" as="targetPoint" />
          </mxGeometry>
        </mxCell>
        <mxCell id="1QNPYIcT4z8EZCShUoJh-54" value="" style="endArrow=none;html=1;strokeColor=#00CC00;" parent="1" edge="1">
          <mxGeometry width="50" height="50" relative="1" as="geometry">
            <mxPoint x="770" y="480" as="sourcePoint" />
            <mxPoint x="810" y="480" as="targetPoint" />
          </mxGeometry>
        </mxCell>
        <mxCell id="1QNPYIcT4z8EZCShUoJh-55" value="" style="endArrow=none;html=1;strokeColor=#00CC00;" parent="1" edge="1">
          <mxGeometry width="50" height="50" relative="1" as="geometry">
            <mxPoint x="750" y="410" as="sourcePoint" />
            <mxPoint x="790" y="410" as="targetPoint" />
          </mxGeometry>
        </mxCell>
        <mxCell id="1QNPYIcT4z8EZCShUoJh-56" value="" style="endArrow=none;html=1;strokeColor=#00CC00;" parent="1" edge="1">
          <mxGeometry width="50" height="50" relative="1" as="geometry">
            <mxPoint x="790" y="430" as="sourcePoint" />
            <mxPoint x="790" y="410" as="targetPoint" />
          </mxGeometry>
        </mxCell>
        <mxCell id="1QNPYIcT4z8EZCShUoJh-57" value="" style="endArrow=none;html=1;strokeColor=#00CC00;" parent="1" edge="1">
          <mxGeometry width="50" height="50" relative="1" as="geometry">
            <mxPoint x="790" y="430" as="sourcePoint" />
            <mxPoint x="810" y="430" as="targetPoint" />
          </mxGeometry>
        </mxCell>
        <mxCell id="1QNPYIcT4z8EZCShUoJh-58" value="" style="endArrow=none;html=1;strokeColor=#00CC00;" parent="1" edge="1">
          <mxGeometry width="50" height="50" relative="1" as="geometry">
            <mxPoint x="770" y="370" as="sourcePoint" />
            <mxPoint x="770" y="320" as="targetPoint" />
          </mxGeometry>
        </mxCell>
        <mxCell id="1QNPYIcT4z8EZCShUoJh-59" value="" style="endArrow=none;html=1;strokeColor=#00CC00;" parent="1" edge="1">
          <mxGeometry width="50" height="50" relative="1" as="geometry">
            <mxPoint x="750" y="390" as="sourcePoint" />
            <mxPoint x="790" y="390" as="targetPoint" />
          </mxGeometry>
        </mxCell>
        <mxCell id="1QNPYIcT4z8EZCShUoJh-60" value="" style="endArrow=none;html=1;strokeColor=#00CC00;" parent="1" edge="1">
          <mxGeometry width="50" height="50" relative="1" as="geometry">
            <mxPoint x="790" y="390" as="sourcePoint" />
            <mxPoint x="790" y="370" as="targetPoint" />
          </mxGeometry>
        </mxCell>
        <mxCell id="1QNPYIcT4z8EZCShUoJh-61" value="" style="endArrow=none;html=1;strokeColor=#00CC00;" parent="1" edge="1">
          <mxGeometry width="50" height="50" relative="1" as="geometry">
            <mxPoint x="790" y="370" as="sourcePoint" />
            <mxPoint x="810" y="370" as="targetPoint" />
          </mxGeometry>
        </mxCell>
        <mxCell id="1QNPYIcT4z8EZCShUoJh-62" value="" style="endArrow=none;html=1;strokeColor=#00CC00;" parent="1" edge="1">
          <mxGeometry width="50" height="50" relative="1" as="geometry">
            <mxPoint x="770" y="320" as="sourcePoint" />
            <mxPoint x="810" y="320" as="targetPoint" />
          </mxGeometry>
        </mxCell>
        <mxCell id="1QNPYIcT4z8EZCShUoJh-63" value="" style="endArrow=none;html=1;strokeColor=#00CC00;" parent="1" edge="1">
          <mxGeometry width="50" height="50" relative="1" as="geometry">
            <mxPoint x="500" y="237" as="sourcePoint" />
            <mxPoint x="570" y="237" as="targetPoint" />
          </mxGeometry>
        </mxCell>
        <mxCell id="1QNPYIcT4z8EZCShUoJh-64" value="" style="endArrow=none;html=1;strokeColor=#00CC00;" parent="1" edge="1">
          <mxGeometry width="50" height="50" relative="1" as="geometry">
            <mxPoint x="570" y="480" as="sourcePoint" />
            <mxPoint x="570" y="237" as="targetPoint" />
          </mxGeometry>
        </mxCell>
        <mxCell id="1QNPYIcT4z8EZCShUoJh-65" value="" style="endArrow=none;html=1;strokeColor=#00CC00;" parent="1" edge="1">
          <mxGeometry width="50" height="50" relative="1" as="geometry">
            <mxPoint x="570" y="479.5" as="sourcePoint" />
            <mxPoint x="740" y="480" as="targetPoint" />
          </mxGeometry>
        </mxCell>
        <mxCell id="1QNPYIcT4z8EZCShUoJh-66" value="" style="endArrow=none;html=1;strokeColor=#00CC00;" parent="1" edge="1">
          <mxGeometry width="50" height="50" relative="1" as="geometry">
            <mxPoint x="740" y="570" as="sourcePoint" />
            <mxPoint x="740" y="480" as="targetPoint" />
          </mxGeometry>
        </mxCell>
        <mxCell id="1QNPYIcT4z8EZCShUoJh-67" value="" style="rounded=0;whiteSpace=wrap;html=1;strokeColor=#00CC00;" parent="1" vertex="1">
          <mxGeometry x="760" y="530.5" width="90" height="79.5" as="geometry" />
        </mxCell>
        <mxCell id="1QNPYIcT4z8EZCShUoJh-68" value="" style="endArrow=none;html=1;strokeColor=#00CC00;" parent="1" edge="1">
          <mxGeometry width="50" height="50" relative="1" as="geometry">
            <mxPoint x="850" y="568.5" as="sourcePoint" />
            <mxPoint x="870" y="568.5" as="targetPoint" />
          </mxGeometry>
        </mxCell>
        <mxCell id="1QNPYIcT4z8EZCShUoJh-70" value="PDP-3A&lt;br&gt;&lt;br&gt;&lt;br&gt;&lt;br&gt;&lt;br&gt;&lt;br&gt;&lt;br&gt;" style="rounded=0;whiteSpace=wrap;html=1;strokeColor=#00CC00;fontColor=#00CC00;" parent="1" vertex="1">
          <mxGeometry x="870" y="513" width="160" height="110" as="geometry" />
        </mxCell>
        <mxCell id="1QNPYIcT4z8EZCShUoJh-71" value="UPS HVAC+Plugs&lt;br&gt;Generator Battery&lt;br&gt;Chargers&lt;br&gt;Block Heater&lt;br&gt;Utility Outlet" style="text;html=1;strokeColor=none;fillColor=none;align=left;verticalAlign=middle;whiteSpace=wrap;rounded=0;fontColor=#00CC00;" parent="1" vertex="1">
          <mxGeometry x="880" y="538" width="100" height="80" as="geometry" />
        </mxCell>
        <mxCell id="1QNPYIcT4z8EZCShUoJh-72" value="" style="endArrow=none;html=1;strokeColor=#00CC00;" parent="1" edge="1">
          <mxGeometry width="50" height="50" relative="1" as="geometry">
            <mxPoint x="740" y="569.5" as="sourcePoint" />
            <mxPoint x="760" y="569.5" as="targetPoint" />
          </mxGeometry>
        </mxCell>
        <mxCell id="1QNPYIcT4z8EZCShUoJh-73" value="&lt;font color=&quot;#00cc00&quot;&gt;120V&lt;/font&gt;" style="text;html=1;strokeColor=none;fillColor=none;align=center;verticalAlign=middle;whiteSpace=wrap;rounded=0;" parent="1" vertex="1">
          <mxGeometry x="875" y="518" width="40" height="20" as="geometry" />
        </mxCell>
        <mxCell id="1QNPYIcT4z8EZCShUoJh-74" value="" style="endArrow=none;html=1;strokeColor=#00CC00;" parent="1" edge="1">
          <mxGeometry width="50" height="50" relative="1" as="geometry">
            <mxPoint x="500" y="251" as="sourcePoint" />
            <mxPoint x="530" y="251" as="targetPoint" />
          </mxGeometry>
        </mxCell>
        <mxCell id="1QNPYIcT4z8EZCShUoJh-75" value="" style="endArrow=none;html=1;strokeColor=#00CC00;" parent="1" edge="1">
          <mxGeometry width="50" height="50" relative="1" as="geometry">
            <mxPoint x="530" y="550" as="sourcePoint" />
            <mxPoint x="530" y="251" as="targetPoint" />
          </mxGeometry>
        </mxCell>
        <mxCell id="1QNPYIcT4z8EZCShUoJh-76" value="" style="rounded=0;whiteSpace=wrap;html=1;strokeColor=#00CC00;" parent="1" vertex="1">
          <mxGeometry x="560" y="498" width="150" height="105" as="geometry" />
        </mxCell>
        <mxCell id="1QNPYIcT4z8EZCShUoJh-78" value="LAB 1&lt;br&gt;480/208" style="text;html=1;strokeColor=none;fillColor=none;align=left;verticalAlign=middle;whiteSpace=wrap;rounded=0;fontColor=#00CC00;" parent="1" vertex="1">
          <mxGeometry x="570" y="530.5" width="80" height="40" as="geometry" />
        </mxCell>
        <mxCell id="1QNPYIcT4z8EZCShUoJh-79" value="" style="endArrow=none;html=1;strokeColor=#00CC00;" parent="1" edge="1">
          <mxGeometry width="50" height="50" relative="1" as="geometry">
            <mxPoint x="530" y="550" as="sourcePoint" />
            <mxPoint x="560" y="550" as="targetPoint" />
          </mxGeometry>
        </mxCell>
        <mxCell id="1QNPYIcT4z8EZCShUoJh-80" value="100KW" style="text;html=1;align=center;verticalAlign=middle;resizable=0;points=[];autosize=1;strokeColor=none;fontColor=#00CC00;" parent="1" vertex="1">
          <mxGeometry x="300" y="200" width="50" height="20" as="geometry" />
        </mxCell>
        <mxCell id="1QNPYIcT4z8EZCShUoJh-81" value="" style="endArrow=none;html=1;strokeColor=#00CC00;" parent="1" edge="1">
          <mxGeometry width="50" height="50" relative="1" as="geometry">
            <mxPoint x="350" y="210" as="sourcePoint" />
            <mxPoint x="400" y="210.5" as="targetPoint" />
          </mxGeometry>
        </mxCell>
        <mxCell id="1QNPYIcT4z8EZCShUoJh-82" value="225A" style="text;html=1;align=center;verticalAlign=middle;resizable=0;points=[];autosize=1;strokeColor=none;fontColor=#00CC00;" parent="1" vertex="1">
          <mxGeometry x="400" y="200" width="40" height="20" as="geometry" />
        </mxCell>
        <mxCell id="1QNPYIcT4z8EZCShUoJh-83" value="400A&lt;br&gt;ATS" style="rounded=0;whiteSpace=wrap;html=1;" parent="1" vertex="1">
          <mxGeometry x="160" y="305" width="50" height="50" as="geometry" />
        </mxCell>
        <mxCell id="1QNPYIcT4z8EZCShUoJh-84" value="150A" style="text;html=1;align=center;verticalAlign=middle;resizable=0;points=[];autosize=1;strokeColor=none;fontColor=#00CC00;" parent="1" vertex="1">
          <mxGeometry x="250" y="200" width="40" height="20" as="geometry" />
        </mxCell>
        <mxCell id="1QNPYIcT4z8EZCShUoJh-85" value="PDP-2&lt;br&gt;&lt;br&gt;&lt;br&gt;&lt;br&gt;&lt;br&gt;&lt;br&gt;&lt;br&gt;&lt;br&gt;&lt;br&gt;" style="rounded=0;whiteSpace=wrap;html=1;strokeColor=#0000CC;fontColor=#0000CC;" parent="1" vertex="1">
          <mxGeometry x="250" y="281" width="100" height="140" as="geometry" />
        </mxCell>
        <mxCell id="1QNPYIcT4z8EZCShUoJh-86" value="225A" style="text;html=1;align=center;verticalAlign=middle;resizable=0;points=[];autosize=1;strokeColor=none;fontColor=#0000CC;" parent="1" vertex="1">
          <mxGeometry x="250" y="318" width="40" height="20" as="geometry" />
        </mxCell>
        <mxCell id="1QNPYIcT4z8EZCShUoJh-87" value="" style="endArrow=none;html=1;fontColor=#0000CC;strokeColor=#0000CC;" parent="1" edge="1">
          <mxGeometry width="50" height="50" relative="1" as="geometry">
            <mxPoint x="230" y="329" as="sourcePoint" />
            <mxPoint x="230" y="209" as="targetPoint" />
          </mxGeometry>
        </mxCell>
        <mxCell id="1QNPYIcT4z8EZCShUoJh-89" value="" style="endArrow=none;html=1;fontColor=#0000CC;strokeColor=#0000CC;" parent="1" edge="1">
          <mxGeometry width="50" height="50" relative="1" as="geometry">
            <mxPoint x="210" y="330" as="sourcePoint" />
            <mxPoint x="250" y="329.5" as="targetPoint" />
          </mxGeometry>
        </mxCell>
        <mxCell id="1QNPYIcT4z8EZCShUoJh-90" value="100A&lt;br&gt;&lt;br&gt;80A&lt;br&gt;&lt;br&gt;150A" style="text;html=1;align=right;verticalAlign=middle;resizable=0;points=[];autosize=1;strokeColor=none;fontColor=#0000CC;" parent="1" vertex="1">
          <mxGeometry x="310" y="318" width="40" height="80" as="geometry" />
        </mxCell>
        <mxCell id="1QNPYIcT4z8EZCShUoJh-92" value="Liebert" style="rounded=0;whiteSpace=wrap;html=1;strokeColor=#0000CC;fontColor=#0000CC;" parent="1" vertex="1">
          <mxGeometry x="403" y="424" width="75" height="30" as="geometry" />
        </mxCell>
        <mxCell id="1QNPYIcT4z8EZCShUoJh-94" value="" style="endArrow=none;html=1;fontColor=#0000CC;strokeColor=#0000CC;" parent="1" edge="1">
          <mxGeometry width="50" height="50" relative="1" as="geometry">
            <mxPoint x="350" y="358" as="sourcePoint" />
            <mxPoint x="360" y="358" as="targetPoint" />
          </mxGeometry>
        </mxCell>
        <mxCell id="1QNPYIcT4z8EZCShUoJh-95" value="" style="endArrow=none;html=1;" parent="1" edge="1">
          <mxGeometry width="50" height="50" relative="1" as="geometry">
            <mxPoint x="386" y="386.5" as="sourcePoint" />
            <mxPoint x="386" y="356.5" as="targetPoint" />
          </mxGeometry>
        </mxCell>
        <mxCell id="1QNPYIcT4z8EZCShUoJh-97" value="" style="endArrow=none;html=1;strokeColor=#0000FF;" parent="1" edge="1">
          <mxGeometry width="50" height="50" relative="1" as="geometry">
            <mxPoint x="184.5" y="305" as="sourcePoint" />
            <mxPoint x="185" y="220" as="targetPoint" />
          </mxGeometry>
        </mxCell>
        <mxCell id="1QNPYIcT4z8EZCShUoJh-98" value="" style="rounded=0;whiteSpace=wrap;html=1;align=center;strokeColor=#0000FF;" parent="1" vertex="1">
          <mxGeometry x="40" y="190" width="125" height="60" as="geometry" />
        </mxCell>
        <mxCell id="1QNPYIcT4z8EZCShUoJh-99" value="Generator&lt;br&gt;100KW&lt;br&gt;&lt;div&gt;125KVA&lt;/div&gt;" style="text;html=1;strokeColor=none;fillColor=none;align=center;verticalAlign=middle;whiteSpace=wrap;rounded=0;fontColor=#0000FF;" parent="1" vertex="1">
          <mxGeometry x="35" y="190" width="100" height="58" as="geometry" />
        </mxCell>
        <mxCell id="1QNPYIcT4z8EZCShUoJh-100" value="150A" style="text;html=1;align=center;verticalAlign=middle;resizable=0;points=[];autosize=1;strokeColor=none;fontColor=#0000FF;" parent="1" vertex="1">
          <mxGeometry x="125" y="211" width="40" height="20" as="geometry" />
        </mxCell>
        <mxCell id="1QNPYIcT4z8EZCShUoJh-101" value="" style="endArrow=none;html=1;strokeColor=#0000FF;" parent="1" edge="1">
          <mxGeometry width="50" height="50" relative="1" as="geometry">
            <mxPoint x="165" y="220.5" as="sourcePoint" />
            <mxPoint x="185" y="220.5" as="targetPoint" />
          </mxGeometry>
        </mxCell>
        <mxCell id="1QNPYIcT4z8EZCShUoJh-102" value="PDP-1&lt;br&gt;&lt;br&gt;&lt;br&gt;&lt;br&gt;&lt;br&gt;&lt;br&gt;&lt;br&gt;&lt;br&gt;" style="rounded=0;whiteSpace=wrap;html=1;" parent="1" vertex="1">
          <mxGeometry x="64.75" y="499" width="100" height="140" as="geometry" />
        </mxCell>
        <mxCell id="1QNPYIcT4z8EZCShUoJh-103" value="" style="endArrow=none;html=1;" parent="1" edge="1">
          <mxGeometry width="50" height="50" relative="1" as="geometry">
            <mxPoint x="185" y="480" as="sourcePoint" />
            <mxPoint x="185" y="356" as="targetPoint" />
          </mxGeometry>
        </mxCell>
        <mxCell id="1QNPYIcT4z8EZCShUoJh-104" value="" style="endArrow=classic;html=1;" parent="1" edge="1">
          <mxGeometry width="50" height="50" relative="1" as="geometry">
            <mxPoint x="-10.25" y="548" as="sourcePoint" />
            <mxPoint x="54.75" y="547.5" as="targetPoint" />
          </mxGeometry>
        </mxCell>
        <mxCell id="1QNPYIcT4z8EZCShUoJh-105" value="PG&amp;amp;E In&lt;br&gt;400A" style="text;html=1;align=center;verticalAlign=middle;resizable=0;points=[];autosize=1;strokeColor=none;" parent="1" vertex="1">
          <mxGeometry x="-15.25" y="513" width="70" height="40" as="geometry" />
        </mxCell>
        <mxCell id="1QNPYIcT4z8EZCShUoJh-106" value="70A" style="text;html=1;align=left;verticalAlign=middle;resizable=0;points=[];autosize=1;strokeColor=none;" parent="1" vertex="1">
          <mxGeometry x="67.75" y="536" width="40" height="20" as="geometry" />
        </mxCell>
        <mxCell id="1QNPYIcT4z8EZCShUoJh-107" value="400A&lt;br&gt;&lt;br&gt;225A&lt;br&gt;&lt;br&gt;70A&lt;br&gt;&lt;br&gt;400A" style="text;html=1;align=right;verticalAlign=middle;resizable=0;points=[];autosize=1;strokeColor=none;" parent="1" vertex="1">
          <mxGeometry x="124.75" y="536" width="40" height="100" as="geometry" />
        </mxCell>
        <mxCell id="1QNPYIcT4z8EZCShUoJh-108" value="" style="endArrow=none;html=1;" parent="1" edge="1">
          <mxGeometry width="50" height="50" relative="1" as="geometry">
            <mxPoint x="164.75" y="544.5" as="sourcePoint" />
            <mxPoint x="184.75" y="544.5" as="targetPoint" />
          </mxGeometry>
        </mxCell>
        <mxCell id="1QNPYIcT4z8EZCShUoJh-109" value="" style="endArrow=none;html=1;" parent="1" edge="1">
          <mxGeometry width="50" height="50" relative="1" as="geometry">
            <mxPoint x="185.25" y="545" as="sourcePoint" />
            <mxPoint x="185.25" y="480" as="targetPoint" />
          </mxGeometry>
        </mxCell>
        <mxCell id="1QNPYIcT4z8EZCShUoJh-111" value="" style="rounded=0;whiteSpace=wrap;html=1;" parent="1" vertex="1">
          <mxGeometry x="235.25" y="469" width="150" height="100" as="geometry" />
        </mxCell>
        <mxCell id="1QNPYIcT4z8EZCShUoJh-112" value="Trasnformer&lt;br&gt;&lt;br&gt;&lt;br&gt;&lt;br&gt;&lt;br&gt;&lt;br&gt;" style="rounded=0;whiteSpace=wrap;html=1;" parent="1" vertex="1">
          <mxGeometry x="235.25" y="597" width="90" height="88" as="geometry" />
        </mxCell>
        <mxCell id="1QNPYIcT4z8EZCShUoJh-113" value="" style="endArrow=none;html=1;" parent="1" edge="1">
          <mxGeometry width="50" height="50" relative="1" as="geometry">
            <mxPoint x="164.75" y="572.5" as="sourcePoint" />
            <mxPoint x="205.25" y="573" as="targetPoint" />
          </mxGeometry>
        </mxCell>
        <mxCell id="1QNPYIcT4z8EZCShUoJh-114" value="" style="endArrow=none;html=1;" parent="1" edge="1">
          <mxGeometry width="50" height="50" relative="1" as="geometry">
            <mxPoint x="205.25" y="573.5" as="sourcePoint" />
            <mxPoint x="205.25" y="519" as="targetPoint" />
          </mxGeometry>
        </mxCell>
        <mxCell id="1QNPYIcT4z8EZCShUoJh-115" value="" style="endArrow=none;html=1;" parent="1" edge="1">
          <mxGeometry width="50" height="50" relative="1" as="geometry">
            <mxPoint x="205.25" y="519" as="sourcePoint" />
            <mxPoint x="235.25" y="519" as="targetPoint" />
          </mxGeometry>
        </mxCell>
        <mxCell id="1QNPYIcT4z8EZCShUoJh-116" value="" style="endArrow=none;html=1;" parent="1" edge="1">
          <mxGeometry width="50" height="50" relative="1" as="geometry">
            <mxPoint x="164.75" y="601" as="sourcePoint" />
            <mxPoint x="205.25" y="601.5" as="targetPoint" />
          </mxGeometry>
        </mxCell>
        <mxCell id="1QNPYIcT4z8EZCShUoJh-117" value="" style="endArrow=none;html=1;" parent="1" edge="1">
          <mxGeometry width="50" height="50" relative="1" as="geometry">
            <mxPoint x="205" y="640" as="sourcePoint" />
            <mxPoint x="205.25" y="601.5" as="targetPoint" />
          </mxGeometry>
        </mxCell>
        <mxCell id="1QNPYIcT4z8EZCShUoJh-118" value="" style="endArrow=none;html=1;entryX=0;entryY=0.5;entryDx=0;entryDy=0;" parent="1" target="1QNPYIcT4z8EZCShUoJh-112" edge="1">
          <mxGeometry width="50" height="50" relative="1" as="geometry">
            <mxPoint x="205" y="641" as="sourcePoint" />
            <mxPoint x="235.25" y="629" as="targetPoint" />
          </mxGeometry>
        </mxCell>
        <mxCell id="1QNPYIcT4z8EZCShUoJh-119" value="" style="pointerEvents=1;verticalLabelPosition=bottom;shadow=0;dashed=0;align=center;html=1;verticalAlign=top;shape=mxgraph.electrical.inductors.transformer_1;" parent="1" vertex="1">
          <mxGeometry x="248.25" y="617.5" width="64" height="60" as="geometry" />
        </mxCell>
        <mxCell id="1QNPYIcT4z8EZCShUoJh-120" value="" style="pointerEvents=1;verticalLabelPosition=bottom;shadow=0;dashed=0;align=center;html=1;verticalAlign=top;shape=mxgraph.electrical.inductors.transformer_1;strokeColor=#00CC00;" parent="1" vertex="1">
          <mxGeometry x="633" y="526" width="64" height="60" as="geometry" />
        </mxCell>
        <mxCell id="1QNPYIcT4z8EZCShUoJh-121" value="Transformer" style="text;html=1;align=center;verticalAlign=middle;resizable=0;points=[];autosize=1;strokeColor=none;fontColor=#00CC00;" parent="1" vertex="1">
          <mxGeometry x="626" y="505" width="80" height="20" as="geometry" />
        </mxCell>
        <mxCell id="1QNPYIcT4z8EZCShUoJh-122" value="HVAC SPR Ceiling Units" style="text;html=1;align=center;verticalAlign=middle;resizable=0;points=[];autosize=1;strokeColor=none;" parent="1" vertex="1">
          <mxGeometry x="205.25" y="685" width="150" height="20" as="geometry" />
        </mxCell>
        <mxCell id="1QNPYIcT4z8EZCShUoJh-123" value="" style="pointerEvents=1;verticalLabelPosition=bottom;shadow=0;dashed=0;align=center;html=1;verticalAlign=top;shape=mxgraph.electrical.inductors.transformer_1;fontColor=#00CC00;strokeColor=#00CC00;" parent="1" vertex="1">
          <mxGeometry x="865" y="216.5" width="50" height="50" as="geometry" />
        </mxCell>
        <mxCell id="1QNPYIcT4z8EZCShUoJh-124" value="Transformer" style="text;html=1;align=center;verticalAlign=middle;resizable=0;points=[];autosize=1;strokeColor=none;fontColor=#00CC00;" parent="1" vertex="1">
          <mxGeometry x="850" y="197.5" width="80" height="20" as="geometry" />
        </mxCell>
        <mxCell id="1QNPYIcT4z8EZCShUoJh-125" value="" style="pointerEvents=1;verticalLabelPosition=bottom;shadow=0;dashed=0;align=center;html=1;verticalAlign=top;shape=mxgraph.electrical.inductors.transformer_1;strokeColor=#00CC00;" parent="1" vertex="1">
          <mxGeometry x="677" y="380.5" width="64" height="60" as="geometry" />
        </mxCell>
        <mxCell id="1QNPYIcT4z8EZCShUoJh-126" value="Transformer" style="text;html=1;align=center;verticalAlign=middle;resizable=0;points=[];autosize=1;strokeColor=none;fontColor=#00CC00;" parent="1" vertex="1">
          <mxGeometry x="670" y="359.5" width="80" height="20" as="geometry" />
        </mxCell>
        <mxCell id="1QNPYIcT4z8EZCShUoJh-127" value="" style="pointerEvents=1;verticalLabelPosition=bottom;shadow=0;dashed=0;align=center;html=1;verticalAlign=top;shape=mxgraph.electrical.inductors.transformer_1;fontColor=#00CC00;strokeColor=#00CC00;" parent="1" vertex="1">
          <mxGeometry x="780" y="559.5" width="50" height="50" as="geometry" />
        </mxCell>
        <mxCell id="1QNPYIcT4z8EZCShUoJh-128" value="Transformer&lt;div&gt;UPS Shed&lt;/div&gt;" style="text;html=1;align=center;verticalAlign=middle;resizable=0;points=[];autosize=1;strokeColor=none;fontColor=#00CC00;" parent="1" vertex="1">
          <mxGeometry x="760" y="526.5" width="90" height="40" as="geometry" />
        </mxCell>
        <mxCell id="1QNPYIcT4z8EZCShUoJh-129" value="MAIN LAB&lt;br&gt;480/208" style="text;html=1;strokeColor=none;fillColor=none;align=left;verticalAlign=middle;whiteSpace=wrap;rounded=0;" parent="1" vertex="1">
          <mxGeometry x="240.25" y="501" width="80" height="40" as="geometry" />
        </mxCell>
        <mxCell id="1QNPYIcT4z8EZCShUoJh-130" value="" style="pointerEvents=1;verticalLabelPosition=bottom;shadow=0;dashed=0;align=center;html=1;verticalAlign=top;shape=mxgraph.electrical.inductors.transformer_1;" parent="1" vertex="1">
          <mxGeometry x="307.25" y="499.5" width="64" height="60" as="geometry" />
        </mxCell>
        <mxCell id="1QNPYIcT4z8EZCShUoJh-131" value="Transformer" style="text;html=1;align=center;verticalAlign=middle;resizable=0;points=[];autosize=1;strokeColor=none;" parent="1" vertex="1">
          <mxGeometry x="300.25" y="478.5" width="80" height="20" as="geometry" />
        </mxCell>
        <mxCell id="1QNPYIcT4z8EZCShUoJh-132" value="" style="rounded=0;whiteSpace=wrap;html=1;strokeColor=#0000CC;" parent="1" vertex="1">
          <mxGeometry x="381.25" y="308" width="130" height="100" as="geometry" />
        </mxCell>
        <mxCell id="1QNPYIcT4z8EZCShUoJh-133" value="LAB 2&lt;br&gt;480/208" style="text;html=1;strokeColor=none;fillColor=none;align=left;verticalAlign=middle;whiteSpace=wrap;rounded=0;fontColor=#0000CC;" parent="1" vertex="1">
          <mxGeometry x="387.25" y="339" width="60" height="40" as="geometry" />
        </mxCell>
        <mxCell id="1QNPYIcT4z8EZCShUoJh-134" value="" style="pointerEvents=1;verticalLabelPosition=bottom;shadow=0;dashed=0;align=center;html=1;verticalAlign=top;shape=mxgraph.electrical.inductors.transformer_1;strokeColor=#0000CC;" parent="1" vertex="1">
          <mxGeometry x="438.25" y="338.5" width="64" height="60" as="geometry" />
        </mxCell>
        <mxCell id="1QNPYIcT4z8EZCShUoJh-135" value="Transformer" style="text;html=1;align=center;verticalAlign=middle;resizable=0;points=[];autosize=1;strokeColor=none;fontColor=#0000CC;" parent="1" vertex="1">
          <mxGeometry x="431.25" y="317.5" width="80" height="20" as="geometry" />
        </mxCell>
        <mxCell id="1QNPYIcT4z8EZCShUoJh-136" value="" style="endArrow=none;html=1;strokeColor=#0000CC;" parent="1" edge="1">
          <mxGeometry width="50" height="50" relative="1" as="geometry">
            <mxPoint x="360" y="439" as="sourcePoint" />
            <mxPoint x="360" y="357.5" as="targetPoint" />
          </mxGeometry>
        </mxCell>
        <mxCell id="1QNPYIcT4z8EZCShUoJh-139" value="" style="endArrow=none;html=1;fontColor=#0000CC;strokeColor=#0000CC;" parent="1" edge="1">
          <mxGeometry width="50" height="50" relative="1" as="geometry">
            <mxPoint x="370" y="360" as="sourcePoint" />
            <mxPoint x="370" y="330" as="targetPoint" />
          </mxGeometry>
        </mxCell>
        <mxCell id="1QNPYIcT4z8EZCShUoJh-141" value="" style="endArrow=none;html=1;fontColor=#0000CC;strokeColor=#0000CC;" parent="1" edge="1">
          <mxGeometry width="50" height="50" relative="1" as="geometry">
            <mxPoint x="370.25" y="359.5" as="sourcePoint" />
            <mxPoint x="380.25" y="359.5" as="targetPoint" />
          </mxGeometry>
        </mxCell>
        <mxCell id="1QNPYIcT4z8EZCShUoJh-142" value="" style="endArrow=none;html=1;fontColor=#0000CC;strokeColor=#0000CC;" parent="1" edge="1">
          <mxGeometry width="50" height="50" relative="1" as="geometry">
            <mxPoint x="350" y="329.5" as="sourcePoint" />
            <mxPoint x="370" y="329.5" as="targetPoint" />
          </mxGeometry>
        </mxCell>
        <mxCell id="1QNPYIcT4z8EZCShUoJh-144" value="" style="endArrow=none;html=1;fontColor=#0000CC;strokeColor=#0000CC;" parent="1" edge="1">
          <mxGeometry width="50" height="50" relative="1" as="geometry">
            <mxPoint x="230" y="209.5" as="sourcePoint" />
            <mxPoint x="250" y="209.5" as="targetPoint" />
          </mxGeometry>
        </mxCell>
        <mxCell id="1QNPYIcT4z8EZCShUoJh-148" value="&lt;font style=&quot;font-size: 20px&quot;&gt;As Built System&amp;nbsp;&lt;br&gt;August 2024&lt;/font&gt;" style="text;html=1;strokeColor=none;fillColor=none;align=center;verticalAlign=middle;whiteSpace=wrap;rounded=0;" parent="1" vertex="1">
          <mxGeometry x="64.75" y="24" width="207.25" height="71" as="geometry" />
        </mxCell>
        <mxCell id="1QNPYIcT4z8EZCShUoJh-149" value="Alexander Pollak 07/01/2024&amp;nbsp;" style="text;html=1;strokeColor=none;fillColor=none;align=center;verticalAlign=middle;whiteSpace=wrap;rounded=0;" parent="1" vertex="1">
          <mxGeometry x="945" y="667" width="120" height="20" as="geometry" />
        </mxCell>
        <mxCell id="TSwE0j-QHjeNVIOg-0xz-1" value="&lt;font color=&quot;#0000cc&quot;&gt;HVAC SPR&amp;nbsp;&lt;/font&gt;" style="text;html=1;align=center;verticalAlign=middle;resizable=0;points=[];autosize=1;strokeColor=none;" parent="1" vertex="1">
          <mxGeometry x="403" y="454" width="80" height="20" as="geometry" />
        </mxCell>
        <mxCell id="TSwE0j-QHjeNVIOg-0xz-2" value="" style="endArrow=none;html=1;fontColor=#0000CC;strokeColor=#0000CC;" parent="1" edge="1">
          <mxGeometry width="50" height="50" relative="1" as="geometry">
            <mxPoint x="360.25" y="438.5" as="sourcePoint" />
            <mxPoint x="403" y="438.5" as="targetPoint" />
          </mxGeometry>
        </mxCell>
      </root>
    </mxGraphModel>
  </diagram>
</mxfile>
